<svg xmlns="http://www.w3.org/2000/svg" width="40" height="29"><path d="M11.12 12.43a79.83 79.83 0 0 1 21.45-.25l-.78-.75c-1.59-1.43-3.2-2.94-4.91-4.28-.85-.67-1.73-1.32-2.63-1.91C23 4.39 20.72 3.81 21 1.86A1.85 1.85 0 0 1 23.71.37c.23.11.45.22.66.34 5.8 3.11 10.56 8 15 12.72a2 2 0 0 1 .2 2.76q-3.6 3.57-7.3 7c-1.23 1.15-2.48 2.29-3.73 3.42-.91.81-1.7 2-2.9 2.4a2 2 0 0 1-2.26-.73 2 2 0 0 1 .3-2.51A25.65 25.65 0 0 1 26 23.65l2.62-2.41c1.73-1.61 3.44-3.25 5.14-4.9a81.53 81.53 0 0 0-3.5-.43 71.63 71.63 0 0 0-28.36 2.6A2.12 2.12 0 0 1 .13 17.2a1.83 1.83 0 0 1 .4-1.88 6.16 6.16 0 0 1 3.58-1.92 29.16 29.16 0 0 1 3.62-.49c1.37-.14 2-.28 3.39-.48" transform="translate(0 -.15)" style="fill:#212721;fill-rule:evenodd"/></svg>