<svg xmlns="http://www.w3.org/2000/svg" width="31.7" height="30.62" fill="#fff"><path d="M26.75 5.25a27.72 27.72 0 0 1 0 3.41l-3.34.16a1.64 1.64 0 0 0-.73.14A1.57 1.57 0 0 0 22 10a7.23 7.23 0 0 0-.17 2.66 1 1 0 0 0 .24.61 1 1 0 0 0 .68.23l4.18.36a26.55 26.55 0 0 1-.93 4.52.8.8 0 0 1-.24.42.78.78 0 0 1-.5.09l-2.84-.1a.51.51 0 0 0-.42.11.5.5 0 0 0-.09.34 94.07 94.07 0 0 0 .42 10.35.75.75 0 0 0 .15.46.76.76 0 0 0 .49.16 51.94 51.94 0 0 0 7.79 0 1 1 0 0 0 .64-.21 1 1 0 0 0 .18-.52c.42-3.77-.32-7.56-.48-11.35-.22-5.22.66-10.47 0-15.66a2.45 2.45 0 0 0-.72-1.73 2.55 2.55 0 0 0-1.22-.36 108.05 108.05 0 0 0-14.4-.27C10.15.24 6.81.43 2 .54A1.78 1.78 0 0 0 .3 2v.1c-.65 4.36 0 9-.06 13.34 0 1.85.06 3.69.19 5.53.17 2.64-.6 5.66.39 8.11.19.47.8 1.18 2.39 1.3 4.52.32 9.07.14 13.6.21a18.1 18.1 0 0 0 .27-6.81L16.74 20a1.12 1.12 0 0 0-.37-.91c-.42-.26-.94.11-1.42.19a1.66 1.66 0 0 1-1.67-1.09 4.88 4.88 0 0 1-.2-2.12c0-.46 0-.91.07-1.37a1.21 1.21 0 0 1 .17-.68 1.14 1.14 0 0 1 .86-.32 9 9 0 0 1 2.48.2c1.07-2.08 0-4.83 1.25-6.81A5.09 5.09 0 0 1 22 5c1.59-.11 3.18.16 4.77 0" fill-rule="evenodd"/></svg>