<svg xmlns="http://www.w3.org/2000/svg" width="30.55" height="30.62" fill="#fff"><path d="M3 5.86a8.83 8.83 0 0 0-.71 2.62A59.35 59.35 0 0 0 1.71 20a17.5 17.5 0 0 0 .55 4.13 5.47 5.47 0 0 0 1.49 2.64 6.74 6.74 0 0 0 2.67 1.29 26.76 26.76 0 0 0 9.52.82c1-.09 2-.15 3.08-.22 1.48-.09 3-.19 4.51-.35a8.14 8.14 0 0 0 2.71-.63A4 4 0 0 0 28 26.06a8.09 8.09 0 0 0 .74-3.32 68.6 68.6 0 0 0-.57-15.29 8 8 0 0 0-.7-2.61 5.49 5.49 0 0 0-3.15-2.42 16.07 16.07 0 0 0-4.42-.67 42.07 42.07 0 0 0-12.2.73l-.43.11a6.51 6.51 0 0 0-4.1 3.08L3 5.86m10.39 24.76a27.27 27.27 0 0 1-7.43-1A8.33 8.33 0 0 1 2.63 28a7.17 7.17 0 0 1-2-3.39 19.34 19.34 0 0 1-.61-4.5A60.29 60.29 0 0 1 .7 8.23a10.34 10.34 0 0 1 .85-3.09c.05-.08.09-.17.14-.26A8.21 8.21 0 0 1 6.83 1l.45-.09A44.19 44.19 0 0 1 20 .12a18.3 18.3 0 0 1 4.87.76 7.11 7.11 0 0 1 4.03 3.21 9.21 9.21 0 0 1 .88 3.12 71.17 71.17 0 0 1 .58 15.64 9.48 9.48 0 0 1-.94 4A5.67 5.67 0 0 1 27 29.14a9.71 9.71 0 0 1-3.27.79c-1.53.16-3.08.26-4.59.36-1 .07-2 .13-3 .22s-1.81.11-2.7.11" fill-rule="evenodd"/><path d="M15.34 12a4.34 4.34 0 0 0-1.74.36l-.27.11a6 6 0 0 0-3.53 3.15c-.82 1.63 0 3.67 1.16 5a7.06 7.06 0 0 0 6.34 2.15A3.31 3.31 0 0 0 19 22a3.62 3.62 0 0 0 1-2 7.57 7.57 0 0 0-1.23-6.5 1.62 1.62 0 0 0-.18-.2 4.68 4.68 0 0 0-3.25-1.3zm.81 12.44a8.73 8.73 0 0 1-6.43-2.79C8.21 19.92 7.19 17.21 8.33 15a7.72 7.72 0 0 1 4.39-4l.2-.08a6.29 6.29 0 0 1 6.81 1.27c.12.12.23.23.32.34a9.09 9.09 0 0 1 1.53 7.77 5.2 5.2 0 0 1-1.49 2.91 5.06 5.06 0 0 1-2.5 1.09 8.75 8.75 0 0 1-1.44.12zm6.72-17.05a1.28 1.28 0 0 0 0 .55 2.3 2.3 0 0 0 .18.58 1.58 1.58 0 0 0 .91.81 1.52 1.52 0 0 0 1.2-.12 1.29 1.29 0 0 0 .65-1.36 1.77 1.77 0 0 0-.44-.73 2.06 2.06 0 0 0-1.17-.71 1.22 1.22 0 0 0-1.2.75z" fill-rule="evenodd"/></svg>