<svg xmlns="http://www.w3.org/2000/svg" width="39.97" height="28.98"><path d="M28.88 16.72A79.83 79.83 0 0 1 7.43 17l.78.75c1.59 1.48 3.2 2.94 4.91 4.28.85.67 1.73 1.31 2.63 1.91 1.28.84 3.53 1.43 3.26 3.37A1.85 1.85 0 0 1 17 29a1.75 1.75 0 0 1-.74-.21l-.67-.33C9.81 25.33 5.07 20.5.67 15.72A2 2 0 0 1 .47 13c2.39-2.42 4.83-4.76 7.29-7C9 4.8 10.24 3.66 11.5 2.54c.91-.82 1.7-2 2.9-2.41a2 2 0 0 1 2.26.72 2 2 0 0 1-.3 2.51A25.62 25.62 0 0 1 14 5.52c-.88.79-1.75 1.59-2.62 2.4q-2.59 2.4-5.14 4.93c1.16.17 2.33.32 3.5.43a71.39 71.39 0 0 0 28.36-2.63A2.1 2.1 0 0 1 39.87 12a1.85 1.85 0 0 1-.4 1.89 6.13 6.13 0 0 1-3.58 1.91 31.5 31.5 0 0 1-3.62.5c-1.37.13-2 .28-3.39.47" transform="translate(-.01 -.02)" style="fill:#212721;fill-rule:evenodd"/></svg>