<svg width="53" height="66" fill="none" xmlns="http://www.w3.org/2000/svg"><path d="m25.677 24.168 1.652-1.39c.15-.069.3-.117.423-.2.958-.66 2.01-1.125 3.106-1.498 1.403-.478 2.843-.733 4.333-.606 1.435.124 2.775.568 4.046 1.236 1.614.85 3.019 1.974 4.249 3.3.84.906 1.644 1.855 2.374 2.849.598.814 1.079 1.72 1.59 2.595.622 1.067 1.268 2.124 1.817 3.23a28.597 28.597 0 0 1 1.8 4.617c.332 1.123.664 2.25.913 3.393.272 1.255.503 2.524.53 3.816.016.783.076 1.565.052 2.346a19.643 19.643 0 0 1-.428 3.523c-.326 1.52-.835 2.972-1.58 4.334-1.225 2.237-2.931 4.037-5.046 5.46-1.898 1.28-3.964 2.206-6.156 2.838-1.28.368-2.575.698-3.878.973-1.023.216-2.069.336-3.108.467a96.006 96.006 0 0 1-3.433.365c-.68.06-1.366.062-2.048.098-.424.022-.845.086-1.267.086-1.426-.005-2.853.014-4.274-.059-1.182-.06-2.361-.22-3.539-.363-1.555-.19-3.074-.545-4.573-.997-1.89-.57-3.687-1.347-5.37-2.377-.31-.189-.59-.419-.888-.625-.08-.054-.186-.072-.26-.13A67.391 67.391 0 0 1 5.5 60.425c-.972-.84-1.857-1.764-2.589-2.818-.45-.65-.883-1.326-1.219-2.038A25.443 25.443 0 0 1 .598 52.79c-.19-.563-.245-1.171-.368-1.757-.262-1.26-.248-2.538-.207-3.813.023-.688.156-1.372.253-2.056.064-.45.137-.897.234-1.341.124-.575.261-1.147.417-1.713.51-1.858 1.165-3.667 2.037-5.385a81.532 81.532 0 0 1 2.45-4.483c.522-.886 1.168-1.7 1.768-2.54a31.884 31.884 0 0 1 3.666-4.253c1.493-1.46 3.12-2.756 4.992-3.707 1.383-.701 2.84-1.108 4.41-.978.994.083 1.939.342 2.773.894.544.36 1.01.813 1.389 1.357.132.192.375.304.555.467.234.213.457.438.715.688l-.005-.002Zm.097 36.493c.98-.06 2.129-.124 3.278-.205.908-.063 1.82-.11 2.72-.233a41.31 41.31 0 0 0 3.147-.562c2.073-.454 4.081-1.105 5.948-2.138 1.459-.808 2.762-1.805 3.803-3.123a10.303 10.303 0 0 0 1.798-3.448c.28-.933.47-1.886.479-2.859.01-.93-.029-1.86-.06-2.79a11.354 11.354 0 0 0-.107-1.293c-.126-.84-.26-1.681-.428-2.513-.212-1.037-.406-2.083-.713-3.093a55.846 55.846 0 0 0-1.407-4.037c-.772-1.985-1.793-3.841-3.123-5.514-1.005-1.263-2.161-2.347-3.643-3.04-1.04-.488-2.138-.7-3.282-.556-1.227.155-2.327.676-3.38 1.295-1.04.611-2.053 1.27-3.108 1.856-.86.476-1.763.822-2.794.57-.707-.173-1.454-.856-1.552-1.56-.055-.399-.237-.656-.57-.872-.695-.454-1.463-.703-2.273-.71-.594-.004-1.18.2-1.73.46-1.378.644-2.56 1.572-3.645 2.609a33.785 33.785 0 0 0-2.55 2.72 29.864 29.864 0 0 0-3.109 4.506c-.703 1.245-1.354 2.516-1.853 3.855-.34.908-.627 1.836-.918 2.762a8.19 8.19 0 0 0-.29 1.216c-.116.755-.242 1.514-.278 2.276-.047.96-.07 1.932.019 2.888.074.803.286 1.595.566 2.367.25.689.55 1.348.934 1.965.726 1.16 1.649 2.143 2.735 2.988.996.775 2.07 1.406 3.224 1.89 1.003.421 2.03.794 3.073 1.104.956.284 1.938.497 2.923.665 1.061.181 2.135.3 3.208.399.926.084 1.857.103 2.96.158l-.002-.003ZM25.162.076c.322-.016.645-.03.966-.047.024 0 .05-.03.072-.029.34.027.68.052 1.02.086.326.032.65.082.977.105 1.523.108 3.03.29 4.425.958.377.181.718.45 1.04.718.17.141.322.211.54.211.74 0 1.483-.022 2.22.045 1.359.12 2.716.273 4.067.458 1.715.235 3.378.692 4.984 1.342 1.083.438 2.135.95 2.983 1.773.372.36.748.773.953 1.235.282.635.239 1.329-.075 1.984-.353.739-.914 1.291-1.557 1.77-1.418 1.056-3.035 1.707-4.69 2.278-1.718.596-3.481 1.036-5.259 1.409a85.115 85.115 0 0 1-3.99.728c-1.146.184-2.301.315-3.453.457-.87.108-1.74.208-2.612.293-1.179.114-2.358.23-3.538.307-1.428.094-2.857.177-4.286.216-2.052.06-4.105.104-6.158.1a55.895 55.895 0 0 1-4.126-.158c-1.27-.096-2.547-.221-3.796-.46-1.003-.193-2.027-.461-2.934-.914-.726-.361-1.45-.879-1.82-1.7-.282-.628-.297-1.262-.14-1.928.246-1.058.84-1.9 1.541-2.691C3.617 7.38 4.938 6.412 6.36 5.585 7.382 4.99 8.42 4.41 9.494 3.923a49.723 49.723 0 0 1 3.9-1.556 39.802 39.802 0 0 1 3.492-1.05c1.08-.277 2.182-.47 3.28-.677C20.88.505 21.6.41 22.32.305c.2-.029.406-.013.599-.064.32-.084.638-.03.958-.049.348-.02.697-.033 1.045-.06.078-.007.153-.064.23-.097.002.014.005.027.009.041h.001Zm-3.403 4.76v.027c-.093 0-.186-.013-.277.001-.664.102-1.329.194-1.99.316-1.078.2-2.166.375-3.228.648-1.168.3-2.317.676-3.46 1.059-1.186.396-2.324.914-3.37 1.61-.598.396-1.145.84-1.478 1.498-.254.502-.146.995.319 1.268.305.18.633.362.973.438.919.205 1.845.391 2.777.513.948.122 1.906.18 2.863.227.93.046 1.865.06 2.799.062.867 0 1.736-.033 2.603-.055.683-.018 1.364-.04 2.046-.06 1.197-.037 2.394-.056 3.588-.117.962-.047 1.921-.144 2.88-.222.238-.019.476-.036.713-.065.807-.102 1.612-.211 2.418-.314.762-.099 1.526-.173 2.284-.292.774-.121 1.547-.265 2.311-.434a59.475 59.475 0 0 0 3.025-.732c.87-.24 1.733-.536 2.455-1.104.665-.523.696-.894.294-1.445-.183-.25-.494-.46-.792-.568a11.291 11.291 0 0 0-1.858-.52c-.763-.138-1.542-.26-2.313-.258-1.042.003-2.087.098-3.125.214-.934.103-1.858.289-2.788.435-.878.136-1.76.133-2.643.05-.186-.017-.381.013-.555-.039a9.664 9.664 0 0 1-1.14-.41c-.86-.374-1.711-.78-2.303-1.54-.218-.279-.454-.325-.76-.307-.755.043-1.51.076-2.267.114l-.001.002Z" fill="#fff"/><path d="M22.637 38.728c.052-1.068.16-2.12.587-3.108.363-.84.87-1.554 1.796-1.845a2.613 2.613 0 0 1 1.601 0c.72.232 1.058.799 1.232 1.503.22.891.15 1.786.106 2.685-.014.294-.043.586-.062.878-.049.778.213 1.478.537 2.165.335.716.533 1.462.469 2.26-.053.675-.258 1.285-.815 1.71-.63.483-1.348.492-2.075.29-.97-.269-1.6-.956-2.129-1.768-.447-.685-.708-1.446-.9-2.228-.112-.448-.145-.915-.207-1.375-.053-.39-.094-.778-.14-1.169v.002ZM35.037 34.931c1.05.035 1.79.504 2.19 1.443.312.734.28 1.491-.043 2.213-.272.61-.346 1.237-.279 1.885.03.289.115.573.191.855.438 1.634-1.028 2.542-2.275 2.204-1.278-.346-2.056-1.258-2.58-2.404a4.722 4.722 0 0 1-.302-3.167c.213-.884.576-1.663 1.23-2.294.525-.506 1.149-.787 1.87-.736l-.002.001Z" fill="#fff"/></svg>